<?xml version="1.0" encoding="utf-8"?>
<!-- Generator: Adobe Illustrator 16.0.3, SVG Export Plug-In . SVG Version: 6.00 Build 0)  -->
<!DOCTYPE svg PUBLIC "-//W3C//DTD SVG 1.1//EN" "http://www.w3.org/Graphics/SVG/1.1/DTD/svg11.dtd">
<svg version="1.1" id="Layer_1" xmlns="http://www.w3.org/2000/svg" xmlns:xlink="http://www.w3.org/1999/xlink" x="0px" y="0px"
	 width="377.953px" height="442.945px" viewBox="0 0 377.953 442.945" enable-background="new 0 0 377.953 442.945"
	 xml:space="preserve">
<g>
	<path d="M190.498,241.04c0.239-2.159,0.447-4.32,0.696-6.482c0.272-2.383,0.547-4.772,0.227-7.165
		c-0.112-0.824-0.41-1.666-0.802-2.4c-0.6-1.143-1.341-2.205-2.036-3.289c-0.193-0.294-0.445-0.308-0.79-0.138
		c-2.474,1.187-5.087,1.905-7.814,2.17c-1.434,0.136-2.803-0.146-4.087-0.845c-1.556-0.843-3.018-1.791-4.072-3.255
		c-0.555-0.768-0.443-1.134,0.393-1.553c0.409-0.201,0.782-0.476,1.183-0.694c1.637-0.899,3.259-1.831,4.927-2.671
		c0.839-0.421,1.445-0.972,1.781-1.851c0.444-1.163,0.914-2.302,2.012-3.063c1.387-0.968,2.824-1.849,4.394-2.469
		c0.814-0.319,1.145-0.932,1.125-1.643c-0.042-1.386-0.215-2.771-0.405-4.148c-0.052-0.375-0.362-0.71-0.54-1.072
		c-0.07-0.144-0.094-0.308-0.134-0.464c0.141-0.039,0.294-0.136,0.415-0.104c0.456,0.122,0.971,0.185,1.333,0.449
		c2.525,1.84,4.52,4.175,6.058,6.879c0.491,0.864,1.211,1.449,1.947,1.982c1.849,1.343,3.157,3.136,4.406,4.987
		c1.552,2.314,3.078,4.649,4.569,7.008c0.4,0.642,0.651,1.379,0.932,2.092c0.441,1.108,0.295,2.187-0.205,3.248
		c-0.961,2.049-2.58,3.482-4.363,4.778c-1.523,1.104-3.02,2.257-4.52,3.396c-0.239,0.187-0.444,0.432-0.615,0.676
		c-1.502,2.194-2.973,4.401-4.471,6.597c-0.21,0.307-0.422,0.615-0.688,0.883c-0.104,0.11-0.354,0.204-0.479,0.152
		c-0.131-0.045-0.239-0.283-0.239-0.448c-0.034-0.508-0.016-1.02-0.016-1.529C190.581,241.047,190.538,241.042,190.498,241.04z"/>
</g>
</svg>
