<?xml version="1.0" encoding="utf-8"?>
<!-- Generator: Adobe Illustrator 16.0.3, SVG Export Plug-In . SVG Version: 6.00 Build 0)  -->
<!DOCTYPE svg PUBLIC "-//W3C//DTD SVG 1.1//EN" "http://www.w3.org/Graphics/SVG/1.1/DTD/svg11.dtd">
<svg version="1.1" id="Layer_1" xmlns="http://www.w3.org/2000/svg" xmlns:xlink="http://www.w3.org/1999/xlink" x="0px" y="0px"
	 width="377.953px" height="442.945px" viewBox="0 0 377.953 442.945" enable-background="new 0 0 377.953 442.945"
	 xml:space="preserve">
<g>
	<path d="M187.453,241.041c-0.229-2.16-0.447-4.323-0.693-6.483c-0.272-2.383-0.547-4.772-0.222-7.165
		c0.111-0.824,0.411-1.662,0.799-2.399c0.598-1.139,1.338-2.203,2.036-3.287c0.191-0.298,0.444-0.308,0.788-0.145
		c2.477,1.188,5.09,1.911,7.819,2.172c1.432,0.137,2.803-0.144,4.085-0.843c1.558-0.842,3.018-1.792,4.072-3.253
		c0.556-0.768,0.443-1.137-0.396-1.553c-0.408-0.203-0.78-0.477-1.181-0.696c-1.638-0.9-3.261-1.831-4.929-2.67
		c-0.838-0.423-1.444-0.973-1.783-1.854c-0.442-1.162-0.91-2.3-2.007-3.062c-1.389-0.967-2.826-1.849-4.396-2.468
		c-0.81-0.32-1.143-0.932-1.12-1.643c0.038-1.385,0.209-2.772,0.4-4.148c0.049-0.375,0.364-0.71,0.54-1.072
		c0.07-0.143,0.091-0.308,0.136-0.464c-0.141-0.039-0.295-0.136-0.42-0.104c-0.451,0.121-0.965,0.185-1.329,0.448
		c-2.524,1.841-4.522,4.176-6.06,6.88c-0.49,0.863-1.209,1.45-1.944,1.981c-1.853,1.342-3.159,3.135-4.404,4.987
		c-1.556,2.314-3.081,4.651-4.57,7.009c-0.403,0.639-0.651,1.38-0.932,2.091c-0.441,1.108-0.296,2.185,0.206,3.252
		c0.961,2.047,2.576,3.479,4.358,4.773c1.526,1.107,3.026,2.256,4.525,3.399c0.239,0.184,0.445,0.429,0.615,0.677
		c1.493,2.194,2.974,4.398,4.465,6.593c0.208,0.309,0.428,0.616,0.685,0.886c0.11,0.111,0.359,0.203,0.49,0.152
		c0.123-0.047,0.229-0.286,0.24-0.449c0.029-0.508,0.01-1.02,0.01-1.529C187.375,241.048,187.416,241.044,187.453,241.041z"/>
</g>
</svg>
