<?xml version="1.0" encoding="utf-8"?>
<!-- Generator: Adobe Illustrator 16.0.3, SVG Export Plug-In . SVG Version: 6.00 Build 0)  -->
<!DOCTYPE svg PUBLIC "-//W3C//DTD SVG 1.1//EN" "http://www.w3.org/Graphics/SVG/1.1/DTD/svg11.dtd">
<svg version="1.1" id="Layer_1" xmlns="http://www.w3.org/2000/svg" xmlns:xlink="http://www.w3.org/1999/xlink" x="0px" y="0px"
	 width="800px" height="800px" viewBox="0 0 800 800" enable-background="new 0 0 800 800" xml:space="preserve">
<g>
	<path d="M317.924,267.674c0-10.578-0.021-20.544,0.006-30.51c0.043-14.929,10.898-25.514,26.081-25.476
		c15.152,0.039,25.879,10.651,25.903,25.652c0.018,9.949,0.004,19.899,0.004,30.087c13.743,0,27.004,0,40.995,0
		c0-2.737,0-5.495,0-8.253c0-7.497-0.033-14.993,0.008-22.489c0.078-14.497,11.074-25.026,26.058-24.997
		c14.962,0.029,25.878,10.594,25.923,25.132c0.03,10.117,0.007,20.235,0.007,30.854c2.077,0,3.692,0,5.312,0
		c14.493,0,28.985,0,43.479,0c16.441,0,26.774,9.507,28.101,25.919c0.65,8.067-1.32,15.503-5.617,22.345
		c-28.231,44.967-56.479,89.925-84.626,134.946c-1.057,1.689-1.564,3.996-1.577,6.02c-0.11,21.322-0.342,42.652,0.035,63.967
		c0.222,12.438-2.362,24.105-7.186,35.389c-6.636,15.521-14.391,30.438-25.91,42.98c-16.624,18.096-33.297,18.176-49.08-0.598
		c-16.209-19.275-27.007-41.473-31.547-66.416c-0.706-3.881-0.35-7.969-0.354-11.961c-0.026-20.322,0.065-40.646-0.104-60.973
		c-0.022-2.654-0.751-5.645-2.119-7.895c-25.947-42.662-51.975-85.272-78.168-127.782c-4.247-6.894-9.892-12.831-11.265-21.37
		c-2.281-14.177,4.241-27.789,16.827-33.488c1.709-0.774,3.781-1.029,5.688-1.037C282.265,267.643,299.739,267.674,317.924,267.674z
		 M358.361,414.482c0,34.461-0.067,68.922,0.021,103.383c0.066,25.619,11.392,46.758,27.071,65.959
		c4.305,5.27,5.843,5.309,10.197,0.127c16.063-19.105,27.812-40.152,27.813-66.074c0.004-29.629,0.002-59.258,0.002-88.887
		c0-38.813,0.016-77.625-0.022-116.436c-0.003-3.825-0.44-7.649-0.462-11.475c-0.02-3.368-1.354-4.527-4.825-4.486
		c-14.988,0.179-29.981,0.076-44.975,0.076c-14.791,0-14.812,0-14.816,14.871C358.353,345.855,358.361,380.169,358.361,414.482z
		 M272.375,296.901c20.49,33.573,40.5,66.355,60.508,99.138c0.345-0.11,0.689-0.222,1.036-0.333c0-32.858,0-65.716,0-98.805
		C313.844,296.901,293.595,296.901,272.375,296.901z M447.923,394.556c0.367,0.126,0.733,0.252,1.103,0.378
		c20.142-32.463,40.281-64.927,60.704-97.845c-21.586,0-41.916,0-61.807,0C447.923,329.855,447.923,362.206,447.923,394.556z
		 M444.547,268.102c0-10.374,0.001-20.188,0-30c0-8.295-2.454-10.339-10.676-8.974c-3.19,0.529-4.887,1.818-4.695,5.563
		c0.34,6.649,0.095,13.326,0.095,19.991c0,4.428,0,8.856,0,13.42C434.634,268.102,439.245,268.102,444.547,268.102z
		 M351.191,267.787c0-10.862,0.005-21.271-0.003-31.68c-0.005-6.32-0.33-6.64-6.734-6.697c-0.995-0.009-1.99,0.014-2.985,0.014
		c-3.421,0-5.015,1.356-4.896,5.122c0.253,7.954,0.076,15.922,0.076,23.885c0,3.072,0,6.145,0,9.356
		C341.753,267.787,346.037,267.787,351.191,267.787z"/>
	<path fill="#FFFFFF" d="M358.361,414.482c0-34.313-0.01-68.627,0.004-102.94c0.007-14.871,0.025-14.871,14.816-14.871
		c14.992,0,29.985,0.103,44.975-0.076c3.473-0.041,4.808,1.118,4.825,4.486c0.021,3.825,0.459,7.649,0.462,11.475
		c0.038,38.811,0.022,77.623,0.022,116.436c0,29.629,0.002,59.258-0.002,88.887c-0.002,25.92-11.749,46.967-27.813,66.074
		c-4.354,5.18-5.895,5.145-10.197-0.127c-15.681-19.201-27.004-40.34-27.071-65.959
		C358.294,483.404,358.361,448.943,358.361,414.482z M390.897,539.639c2.652,0,5.307,0,7.957,0c0.332,0,0.665,0.012,0.994-0.012
		c4.712-0.357,7.957-3.527,8.037-7.848c0.081-4.328-3.104-7.883-7.764-8.053c-6.125-0.229-12.271-0.229-18.396-0.016
		c-4.68,0.162-7.838,3.67-7.779,8.037c0.06,4.35,3.259,7.586,8,7.848C384.923,539.762,387.913,539.629,390.897,539.639z"/>
	<path fill="#FFFFFF" d="M272.375,296.901c21.22,0,41.469,0,61.544,0c0,33.089,0,65.946,0,98.805
		c-0.347,0.111-0.691,0.223-1.036,0.333C312.874,363.257,292.864,330.475,272.375,296.901z"/>
	<path fill="#FFFFFF" d="M447.923,394.556c0-32.351,0-64.7,0-97.467c19.891,0,40.221,0,61.807,0
		c-20.423,32.918-40.563,65.382-60.704,97.845C448.657,394.808,448.29,394.682,447.923,394.556z"/>
	<path fill="#FFFFFF" d="M444.547,268.102c-5.302,0-9.913,0-15.276,0c0-4.563,0-8.992,0-13.42c0-6.665,0.245-13.342-0.095-19.991
		c-0.189-3.744,1.505-5.033,4.695-5.563c8.222-1.365,10.676,0.679,10.676,8.974C444.548,247.915,444.547,257.728,444.547,268.102z"
		/>
	<path fill="#FFFFFF" d="M351.191,267.787c-5.154,0-9.438,0-14.544,0c0-3.212,0-6.284,0-9.356c0-7.963,0.178-15.931-0.075-23.885
		c-0.118-3.766,1.476-5.122,4.896-5.122c0.995,0,1.99-0.022,2.985-0.014c6.403,0.058,6.729,0.377,6.734,6.697
		C351.196,246.515,351.191,256.924,351.191,267.787z"/>
	<path d="M390.897,539.633c-2.982-0.004-5.975,0.129-8.948-0.033c-4.742-0.262-7.941-3.498-8-7.848
		c-0.06-4.365,3.101-7.875,7.779-8.037c6.125-0.213,12.271-0.213,18.396,0.016c4.66,0.17,7.845,3.723,7.764,8.051
		c-0.08,4.318-3.325,7.49-8.037,7.848c-0.329,0.023-0.661,0.012-0.993,0.012C396.202,539.639,393.55,539.639,390.897,539.633z"/>
</g>
</svg>
