<?xml version="1.0" encoding="utf-8"?>
<!-- Generator: Adobe Illustrator 16.0.3, SVG Export Plug-In . SVG Version: 6.00 Build 0)  -->
<!DOCTYPE svg PUBLIC "-//W3C//DTD SVG 1.1//EN" "http://www.w3.org/Graphics/SVG/1.1/DTD/svg11.dtd">
<svg version="1.1" id="Layer_1" xmlns="http://www.w3.org/2000/svg" xmlns:xlink="http://www.w3.org/1999/xlink" x="0px" y="0px"
	 width="600.083px" height="603.91px" viewBox="114.922 69.01 600.083 603.91"
	 enable-background="new 114.922 69.01 600.083 603.91" xml:space="preserve">
<g>
	<path d="M274.973,599.932c-7.891,0-14.257,0.442-20.535-0.114c-7.041-0.63-11.703,2.265-15.044,8.041
		c-82.029-55.771-143.426-169.779-119.086-296.851C145.51,179.444,256.038,81.226,389.117,70.101
		c144.177-12.053,268.752,77.064,310.57,203.02c42.486,127.974-6.695,260.998-106.942,333.561
		c-4.246-8.497-12.192-6.712-19.563-6.744c-5.604-0.021-11.216-0.005-18.234-0.005c2.319-1.522,3.488-2.305,4.671-3.064
		c68.889-44.501,111.906-106.646,124.937-187.854c21.475-133.808-60.006-262.104-190.223-301.416
		C360.753,67.27,218.31,133.528,163.333,261.56c-52.194,121.551-6.965,263.952,106.381,334.945
		C271.074,597.357,272.405,598.257,274.973,599.932z"/>
	<path d="M487.949,470.948c0,10.934,0.048,21.088-0.012,31.241c-0.086,14.188-11.058,24.669-25.81,24.74
		c-14.991,0.075-26.103-10.473-26.169-24.884c-0.045-9.828-0.035-19.656-0.063-29.481c-0.004-0.313-0.148-0.625-0.314-1.276
		c-13.297,0-26.677,0-40.625,0c0,10.502,0.07,20.938-0.018,31.379c-0.108,12.886-9.842,22.921-23.281,24.173
		c-13.697,1.274-26.432-7.322-28.276-19.81c-0.894-6.039-0.354-12.296-0.406-18.454c-0.046-5.646-0.01-11.289-0.01-17.628
		c-2.024,0-3.785,0-5.543,0c-14.493,0-28.983,0-43.479,0c-16.29,0-26.684-9.743-27.888-26.149
		c-0.58-7.896,1.299-15.217,5.487-21.893c28.212-44.98,56.479-89.928,84.623-134.948c1.138-1.821,1.711-4.296,1.724-6.472
		c0.125-21.489,0.313-42.982-0.015-64.467c-0.183-11.916,2.35-23.09,6.905-33.935c6.671-15.885,14.564-31.092,26.335-43.867
		c16.46-17.869,33.081-17.956,48.742,0.563c16.38,19.369,27.235,41.716,31.765,66.844c0.699,3.882,0.313,7.972,0.317,11.965
		c0.021,20.324-0.061,40.647,0.1,60.97c0.02,2.5,0.7,5.321,1.987,7.438c25.954,42.655,51.991,85.259,78.153,127.787
		c4.238,6.889,9.938,12.794,11.36,21.331c2.364,14.187-4.038,27.891-16.528,33.645c-1.708,0.787-3.767,1.128-5.666,1.142
		c-15.988,0.088-31.981,0.05-47.977,0.05C491.746,470.948,490.119,470.948,487.949,470.948z M446.635,441.752
		c0.297-5.048,0.836-9.979,0.84-14.916c0.059-68.441,0.021-136.883,0.049-205.325c0.012-25.832-11.19-47.146-26.93-66.529
		c-4.459-5.491-6.051-5.53-10.543-0.137c-15.963,19.167-27.705,40.204-27.657,66.146c0.057,28.962,0.016,57.925,0.016,86.889
		c0,40.146-0.027,80.288,0.041,120.431c0.008,4.438,0.563,8.871,0.874,13.442C404.647,441.752,425.254,441.752,446.635,441.752z
		 M473.048,342.65c-0.303,0.048-0.604,0.095-0.909,0.141c0,32.922,0,65.843,0,98.923c19.974,0,40.201,0,61.344,0
		C513.101,408.31,493.074,375.48,473.048,342.65z M296.048,441.672c21.729,0,41.97,0,61.833,0c0-32.736,0-65.195,0-97.654
		c-0.352-0.099-0.703-0.194-1.055-0.295C336.727,376.115,316.627,408.509,296.048,441.672z M361.327,470.549
		c0,11.213,0.224,22.021-0.108,32.805c-0.137,4.43,1.706,6.12,5.626,6.162c2.464,0.026,4.989-0.179,7.373-0.754
		c0.943-0.227,2.239-1.729,2.251-2.665c0.153-11.771,0.103-23.545,0.103-35.548C371.359,470.549,366.748,470.549,361.327,470.549z
		 M454.682,470.949c0,11.231,0.2,21.851-0.095,32.451c-0.123,4.446,1.593,6.043,5.73,5.818c1.652-0.088,3.317,0.02,4.974-0.088
		c2.743-0.173,4.133-1.432,3.98-4.452c-0.205-4.137-0.05-8.292-0.05-12.438c0.001-7.064,0-14.129,0-21.294
		C464.075,470.949,459.674,470.949,454.682,470.949z"/>
	<path d="M351.967,539.127c11.539,0,22.467,0,33.996,0c0,6.778-0.013,13.381,0.003,19.982c0.021,8.657-0.01,17.318,0.117,25.979
		c0.18,12.196,8.843,24.56,20.649,27.729c16.453,4.417,30.119-1.4,37.063-18.176c1.571-3.798,1.995-8.271,2.067-12.449
		c0.243-14.148,0.093-28.306,0.093-42.854c10.883,0,21.599,0,32.996,0c0,3.138,0,6.403,0,9.668c0,11.993,0.197,23.99-0.059,35.979
		c-0.256,12.19,9.667,26.305,21.598,29.092c1.727,0.404,3.507,0.813,5.263,0.814c21.155,0.065,42.31-0.021,63.463,0.095
		c15.508,0.084,24.276,7.438,27.121,22.896c1.909,10.387-0.396,19.889-7.548,27.875c-4.322,4.827-9.795,7.164-16.384,7.162
		c-101.108-0.03-202.215-0.008-303.323-0.004c-2.831,0.001-5.662-0.056-8.492-0.104c-15.974-0.275-25.643-8.921-27.394-24.907
		c-1.04-9.489,1.182-18.229,7.659-25.525c4.562-5.142,10.273-7.495,17.258-7.454c22.65,0.134,45.303,0.06,67.957-0.013
		c9.25-0.028,20.545-9.055,23.783-19.355c1.257-3.981,1.951-8.297,2.021-12.476C352.114,568.609,351.967,554.132,351.967,539.127z"
		/>
	<path fill="#FFFFFF" d="M415.043,214.94c0,0.01,0,0.019,0,0.028c2.983,0,5.976,0.138,8.949-0.032
		c4.726-0.269,7.896-3.539,7.932-7.911c0.033-4.362-3.131-7.813-7.844-7.973c-6.126-0.208-12.272-0.22-18.396,0.013
		c-4.623,0.176-7.813,3.805-7.694,8.12c0.109,4.132,3.189,7.405,7.607,7.713C408.731,215.116,411.893,214.94,415.043,214.94z"/>
	<path d="M415.043,214.94c-3.15,0-6.312,0.176-9.446-0.042c-4.418-0.308-7.498-3.581-7.607-7.713
		c-0.117-4.315,3.071-7.944,7.694-8.12c6.124-0.232,12.271-0.221,18.396-0.013c4.713,0.16,7.877,3.611,7.844,7.973
		c-0.033,4.373-3.206,7.643-7.932,7.911c-2.977,0.17-5.966,0.032-8.949,0.032C415.043,214.958,415.043,214.95,415.043,214.94z"/>
</g>
</svg>
