<?xml version="1.0" encoding="utf-8"?>
<!-- Generator: Adobe Illustrator 16.0.3, SVG Export Plug-In . SVG Version: 6.00 Build 0)  -->
<!DOCTYPE svg PUBLIC "-//W3C//DTD SVG 1.1//EN" "http://www.w3.org/Graphics/SVG/1.1/DTD/svg11.dtd">
<svg version="1.1" id="Layer_1" xmlns="http://www.w3.org/2000/svg" xmlns:xlink="http://www.w3.org/1999/xlink" x="0px" y="0px"
	 width="617px" height="624px" viewBox="106.5 57.5 617 624" enable-background="new 106.5 57.5 617 624" xml:space="preserve">
<g>
	<path d="M554.955,141.999c7.891,0,14.258-0.442,20.535,0.116c7.041,0.628,11.703-2.265,15.044-8.041
		c82.028,55.769,143.427,169.779,119.086,296.849c-25.202,131.563-135.73,229.781-268.81,240.906
		c-144.177,12.054-268.752-77.063-310.57-203.02c-42.488-127.974,6.695-260.998,106.943-333.561
		c4.246,8.497,12.191,6.712,19.563,6.744c5.607,0.023,11.217,0.005,18.236,0.005c-2.32,1.524-3.49,2.305-4.67,3.066
		c-68.889,44.501-111.906,106.644-124.938,187.854c-21.473,133.808,60.006,262.104,190.223,301.415
		c133.577,40.327,276.021-25.931,330.998-153.963c52.193-121.552,6.965-263.951-106.381-334.944
		C558.854,144.573,557.523,143.674,554.955,141.999z"/>
	<path d="M341.979,270.982c0-10.934-0.047-21.088,0.012-31.241c0.084-14.188,11.057-24.669,25.809-24.742
		c14.99-0.075,26.102,10.473,26.168,24.884c0.045,9.828,0.035,19.656,0.063,29.483c0.002,0.313,0.148,0.625,0.314,1.276
		c13.296,0,26.677,0,40.625,0c0-10.502-0.07-20.94,0.018-31.379c0.109-12.886,9.84-22.921,23.281-24.173
		c13.697-1.274,26.43,7.322,28.277,19.81c0.893,6.039,0.355,12.296,0.406,18.454c0.045,5.646,0.01,11.289,0.01,17.628
		c2.025,0,3.785,0,5.543,0c14.492,0,28.984,0,43.479,0c16.29,0,26.684,9.743,27.888,26.149c0.58,7.898-1.299,15.217-5.487,21.893
		c-28.211,44.98-56.479,89.927-84.623,134.948c-1.138,1.82-1.711,4.296-1.724,6.472c-0.125,21.489-0.313,42.982,0.015,64.467
		c0.183,11.916-2.35,23.09-6.905,33.936c-6.671,15.885-14.566,31.092-26.335,43.867c-16.46,17.868-33.081,17.955-48.742-0.563
		c-16.38-19.369-27.238-41.716-31.765-66.844c-0.699-3.882-0.313-7.973-0.317-11.965c-0.023-20.324,0.059-40.647-0.1-60.971
		c-0.02-2.5-0.7-5.32-1.987-7.438c-25.954-42.655-51.993-85.259-78.155-127.787c-4.238-6.889-9.938-12.794-11.359-21.331
		c-2.365-14.187,4.037-27.891,16.527-33.645c1.709-0.787,3.768-1.128,5.666-1.14c15.99-0.088,31.984-0.05,47.977-0.05
		C338.182,270.982,339.809,270.982,341.979,270.982z M383.293,300.179c-0.297,5.048-0.836,9.98-0.84,14.916
		c-0.057,68.44-0.02,136.883-0.047,205.325c-0.012,25.831,11.191,47.146,26.928,66.528c4.459,5.491,6.051,5.53,10.543,0.138
		c15.963-19.167,27.705-40.204,27.657-66.145c-0.055-28.962-0.014-57.925-0.014-86.889c0-40.145,0.027-80.288-0.041-120.431
		c-0.008-4.437-0.562-8.871-0.874-13.442C425.281,300.179,404.674,300.179,383.293,300.179z M356.88,399.279
		c0.303-0.047,0.605-0.094,0.909-0.14c0-32.922,0-65.843,0-98.923c-19.972,0-40.201,0-61.342,0
		C316.828,333.621,336.854,366.45,356.88,399.279z M533.881,300.259c-21.729,0-41.971,0-61.834,0c0,32.736,0,65.195,0,97.653
		c0.352,0.1,0.703,0.196,1.055,0.295C493.201,365.815,513.301,333.422,533.881,300.259z M468.602,271.382
		c0-11.213-0.225-22.019,0.107-32.805c0.137-4.428-1.705-6.12-5.625-6.162c-2.465-0.026-4.99,0.179-7.373,0.754
		c-0.943,0.227-2.24,1.729-2.252,2.665c-0.152,11.771-0.1,23.545-0.1,35.548C458.568,271.382,463.18,271.382,468.602,271.382z
		 M375.246,270.981c0-11.233-0.199-21.851,0.096-32.451c0.123-4.448-1.594-6.043-5.73-5.82c-1.654,0.088-3.32-0.018-4.975,0.088
		c-2.742,0.173-4.133,1.432-3.98,4.452c0.205,4.137,0.049,8.292,0.049,12.438c-0.002,7.064,0,14.129,0,21.294
		C365.854,270.981,370.254,270.981,375.246,270.981z"/>
	<path d="M477.961,202.804c-11.539,0-22.467,0-33.996,0c0-6.778,0.014-13.381-0.002-19.982c-0.021-8.659,0.01-17.32-0.117-25.979
		c-0.18-12.196-8.844-24.558-20.65-27.728c-16.455-4.417-30.121,1.4-37.062,18.174c-1.571,3.798-1.995,8.271-2.067,12.451
		c-0.244,14.148-0.094,28.304-0.094,42.854c-10.883,0-21.598,0-32.996,0c0-3.138,0-6.403,0-9.668c0-11.993-0.197-23.99,0.057-35.979
		c0.256-12.192-9.666-26.305-21.596-29.092c-1.727-0.404-3.506-0.813-5.262-0.816c-21.156-0.065-42.311,0.021-63.463-0.093
		c-15.508-0.084-24.277-7.438-27.121-22.898c-1.91-10.386,0.395-19.888,7.547-27.875c4.322-4.827,9.795-7.164,16.385-7.162
		c101.107,0.03,202.215,0.008,303.322,0.004c2.832-0.001,5.662,0.056,8.492,0.104c15.975,0.276,25.644,8.92,27.395,24.908
		c1.04,9.489-1.182,18.227-7.659,25.525c-4.562,5.142-10.272,7.495-17.258,7.454c-22.65-0.134-45.304-0.058-67.954,0.013
		c-9.25,0.028-20.545,9.055-23.785,19.355c-1.256,3.983-1.951,8.297-2.021,12.476C477.814,173.321,477.961,187.799,477.961,202.804z
		"/>
	<path fill="#FFFFFF" d="M414.885,526.99c0-0.01,0-0.019,0-0.027c-2.983,0-5.976-0.139-8.949,0.031
		c-4.726,0.27-7.897,3.539-7.931,7.911c-0.033,4.362,3.13,7.813,7.843,7.974c6.126,0.208,12.272,0.22,18.396-0.014
		c4.623-0.176,7.813-3.805,7.696-8.12c-0.111-4.132-3.191-7.404-7.609-7.713C421.196,526.814,418.035,526.99,414.885,526.99z"/>
	<path d="M414.885,526.99c3.15,0,6.312-0.176,9.446,0.042c4.418,0.309,7.498,3.581,7.609,7.713c0.117,4.315-3.073,7.944-7.696,8.12
		c-6.124,0.232-12.271,0.222-18.396,0.014c-4.713-0.16-7.876-3.611-7.843-7.974c0.033-4.373,3.206-7.643,7.931-7.911
		c2.975-0.17,5.966-0.031,8.949-0.031C414.885,526.973,414.885,526.98,414.885,526.99z"/>
</g>
</svg>
