<?xml version="1.0" encoding="utf-8"?>
<!-- Generator: Adobe Illustrator 16.0.3, SVG Export Plug-In . SVG Version: 6.00 Build 0)  -->
<!DOCTYPE svg PUBLIC "-//W3C//DTD SVG 1.1//EN" "http://www.w3.org/Graphics/SVG/1.1/DTD/svg11.dtd">
<svg version="1.1" id="Layer_1" xmlns="http://www.w3.org/2000/svg" xmlns:xlink="http://www.w3.org/1999/xlink" x="0px" y="0px"
	 width="664px" height="659px" viewBox="83.5 38.5 664 659" enable-background="new 83.5 38.5 664 659" xml:space="preserve">
<g>
	<path d="M555.056,142.06c7.892,0.004,14.258-0.436,20.535,0.124c7.041,0.633,11.704-2.26,15.048-8.034
		c82.004,55.807,143.351,169.843,118.953,296.903c-25.26,131.553-135.831,229.722-268.915,240.787
		c-144.183,11.989-268.718-77.183-310.48-203.158c-42.43-127.992,6.811-260.995,107.091-333.513
		c4.242,8.499,12.189,6.717,19.56,6.753c5.605,0.024,11.217,0.01,18.235,0.013c-2.32,1.521-3.489,2.304-4.673,3.063
		c-68.908,44.471-111.953,106.596-125.02,187.8c-21.534,133.797,59.89,262.13,190.089,301.499
		c133.561,40.389,276.033-25.807,331.067-153.814c52.248-121.528,7.081-263.949-106.232-334.992
		C558.953,144.636,557.623,143.735,555.056,142.06z"/>
	<path d="M342.022,270.949c0.005-10.934-0.038-21.088,0.025-31.242c0.093-14.187,11.069-24.664,25.821-24.728
		c14.99-0.069,26.098,10.483,26.157,24.895c0.041,9.828,0.026,19.656,0.05,29.481c0.003,0.313,0.147,0.625,0.314,1.276
		c13.296,0.006,26.676,0.013,40.625,0.019c0.004-10.502-0.062-20.938,0.03-31.379c0.114-12.886,9.853-22.917,23.292-24.162
		c13.698-1.269,26.429,7.333,28.268,19.821c0.891,6.04,0.349,12.296,0.398,18.455c0.043,5.646,0.005,11.289,0.002,17.627
		c2.024,0.001,3.785,0.002,5.543,0.003c14.493,0.006,28.983,0.013,43.479,0.019c16.291,0.007,26.68,9.755,27.877,26.162
		c0.576,7.896-1.307,15.216-5.497,21.89c-28.232,44.968-56.52,89.903-84.683,134.911c-1.139,1.82-1.713,4.295-1.727,6.471
		c-0.135,21.489-0.333,42.981-0.015,64.468c0.178,11.916-2.359,23.089-6.92,33.932c-6.678,15.882-14.578,31.085-26.354,43.854
		c-16.468,17.862-33.089,17.941-48.741-0.584c-16.372-19.377-27.218-41.728-31.736-66.858c-0.696-3.882-0.308-7.972-0.312-11.965
		c-0.013-20.324,0.079-40.646-0.072-60.971c-0.019-2.5-0.698-5.32-1.983-7.438c-25.936-42.666-51.954-85.282-78.097-127.821
		c-4.235-6.891-9.933-12.799-11.352-21.336c-2.357-14.188,4.051-27.89,16.543-33.638c1.709-0.787,3.768-1.127,5.667-1.14
		c15.988-0.08,31.981-0.035,47.977-0.028C338.226,270.947,339.853,270.948,342.022,270.949z M383.323,300.163
		c-0.298,5.049-0.839,9.979-0.846,14.916c-0.089,68.442-0.082,136.883-0.141,205.325c-0.022,25.831,11.17,47.151,26.9,66.541
		c4.457,5.492,6.049,5.533,10.544,0.143c15.971-19.161,27.722-40.192,27.686-66.136c-0.044-28.961,0.011-57.924,0.023-86.889
		c0.018-40.145,0.063-80.288,0.012-120.43c-0.006-4.438-0.558-8.872-0.867-13.443C425.311,300.183,404.705,300.174,383.323,300.163z
		 M356.867,399.253c0.302-0.047,0.604-0.094,0.909-0.14c0.015-32.922,0.029-65.843,0.044-98.923
		c-19.974-0.009-40.201-0.018-61.345-0.027C316.844,333.576,336.854,366.414,356.867,399.253z M533.91,300.311
		c-21.729-0.01-41.969-0.019-61.832-0.027c-0.015,32.736-0.029,65.195-0.044,97.654c0.352,0.099,0.703,0.194,1.055,0.296
		C493.202,365.85,513.316,333.464,533.91,300.311z M468.645,271.405c0.005-11.213-0.215-22.021,0.123-32.805
		c0.139-4.43-1.703-6.122-5.623-6.166c-2.465-0.027-4.99,0.177-7.373,0.751c-0.944,0.227-2.24,1.728-2.253,2.664
		c-0.159,11.771-0.112,23.545-0.118,35.548C458.612,271.4,463.223,271.402,468.645,271.405z M375.29,270.963
		c0.005-11.231-0.19-21.851,0.109-32.451c0.124-4.446-1.59-6.044-5.729-5.821c-1.651,0.087-3.317-0.021-4.973,0.086
		c-2.743,0.172-4.134,1.43-3.983,4.45c0.204,4.137,0.046,8.292,0.045,12.438c-0.004,7.064-0.007,14.129-0.01,21.294
		C365.896,270.958,370.298,270.961,375.29,270.963z"/>
	<path d="M478.035,202.831c-11.539-0.006-22.467-0.011-33.996-0.016c0.003-6.778,0.019-13.381,0.006-19.982
		c-0.018-8.657,0.018-17.318-0.106-25.979c-0.174-12.196-8.831-24.563-20.636-27.738c-16.452-4.425-30.121,1.387-37.07,18.159
		c-1.573,3.797-2,8.27-2.074,12.448c-0.249,14.148-0.104,28.305-0.111,42.854c-10.883-0.005-21.599-0.01-32.996-0.015
		c0.001-3.138,0.003-6.403,0.005-9.668c0.005-11.993-0.188-23.991,0.074-35.979c0.261-12.19-9.655-26.31-21.585-29.102
		c-1.726-0.405-3.506-0.814-5.262-0.817c-21.155-0.074-42.31,0.002-63.464-0.122c-15.507-0.091-24.272-7.448-27.11-22.909
		c-1.904-10.387,0.404-19.888,7.561-27.871c4.324-4.825,9.798-7.16,16.387-7.155c101.108,0.075,202.215,0.098,303.323,0.139
		c2.831,0,5.662,0.058,8.492,0.108c15.974,0.282,25.639,8.933,27.383,24.919c1.036,9.49-1.19,18.229-7.671,25.522
		c-4.564,5.14-10.275,7.49-17.261,7.446c-22.65-0.144-45.304-0.08-67.956-0.018c-9.25,0.024-20.55,9.046-23.792,19.346
		c-1.259,3.98-1.955,8.295-2.027,12.474C477.9,173.348,478.042,187.825,478.035,202.831z"/>
	<path fill="#FFFFFF" d="M414.815,526.989c0-0.01-0.001-0.019-0.001-0.027c-2.983-0.002-5.976-0.141-8.949,0.028
		c-4.726,0.267-7.896,3.534-7.935,7.907c-0.035,4.361,3.128,7.814,7.841,7.977c6.125,0.211,12.272,0.225,18.396-0.005
		c4.623-0.175,7.814-3.802,7.699-8.117c-0.108-4.132-3.188-7.406-7.605-7.716C421.127,526.815,417.966,526.99,414.815,526.989z"/>
	<path d="M414.815,526.989c3.15,0.001,6.312-0.174,9.445,0.047c4.418,0.31,7.497,3.584,7.605,7.716
		c0.114,4.315-3.076,7.942-7.699,8.117c-6.123,0.229-12.271,0.216-18.396,0.005c-4.713-0.162-7.876-3.615-7.841-7.977
		c0.035-4.373,3.209-7.642,7.935-7.907c2.977-0.169,5.966-0.03,8.949-0.028C414.815,526.972,414.815,526.979,414.815,526.989z"/>
</g>
</svg>
