<?xml version="1.0" encoding="utf-8"?>
<!-- Generator: Adobe Illustrator 16.0.3, SVG Export Plug-In . SVG Version: 6.00 Build 0)  -->
<!DOCTYPE svg PUBLIC "-//W3C//DTD SVG 1.1//EN" "http://www.w3.org/Graphics/SVG/1.1/DTD/svg11.dtd">
<svg version="1.1" id="Layer_1" xmlns="http://www.w3.org/2000/svg" xmlns:xlink="http://www.w3.org/1999/xlink" x="0px" y="0px"
	 width="617px" height="624px" viewBox="106.5 57.5 617 624" enable-background="new 106.5 57.5 617 624" xml:space="preserve">
<g>
	<path d="M185.998,230.975c0-7.891-0.442-14.257,0.116-20.535c0.628-7.041-2.265-11.703-8.041-15.044
		C233.842,113.367,347.853,51.969,474.922,76.31c131.563,25.202,229.781,135.73,240.906,268.809
		c12.054,144.177-77.063,268.752-203.02,310.571c-127.974,42.488-260.998-6.695-333.561-106.943
		c8.497-4.246,6.712-12.191,6.744-19.563c0.023-5.607,0.005-11.217,0.005-18.236c1.524,2.32,2.305,3.49,3.066,4.67
		c44.501,68.889,106.644,111.906,187.854,124.938c133.808,21.473,262.104-60.006,301.415-190.223
		c40.327-133.578-25.931-276.021-153.963-330.998c-121.552-52.194-263.951-6.965-334.944,106.381
		C188.572,227.076,187.673,228.406,185.998,230.975z"/>
	<path d="M314.981,443.951c-10.934,0-21.088,0.047-31.241-0.012c-14.188-0.084-24.669-11.057-24.742-25.809
		c-0.075-14.99,10.473-26.102,24.884-26.168c9.828-0.045,19.656-0.035,29.483-0.063c0.313-0.002,0.625-0.148,1.276-0.314
		c0-13.297,0-26.677,0-40.625c-10.502,0-20.94,0.07-31.379-0.018c-12.886-0.108-22.921-9.84-24.173-23.281
		c-1.274-13.697,7.322-26.43,19.81-28.276c6.039-0.894,12.296-0.355,18.454-0.406c5.646-0.046,11.289-0.01,17.628-0.01
		c0-2.026,0-3.785,0-5.543c0-14.493,0-28.985,0-43.479c0-16.29,9.743-26.684,26.149-27.888c7.898-0.58,15.217,1.299,21.893,5.487
		c44.98,28.212,89.927,56.479,134.948,84.623c1.82,1.138,4.296,1.711,6.472,1.724c21.489,0.125,42.982,0.313,64.467-0.015
		c11.916-0.183,23.09,2.35,33.936,6.905c15.885,6.671,31.092,14.566,43.867,26.335c17.868,16.46,17.955,33.081-0.563,48.742
		c-19.369,16.38-41.716,27.238-66.844,31.765c-3.882,0.699-7.973,0.313-11.965,0.317c-20.324,0.023-40.647-0.059-60.971,0.1
		c-2.5,0.02-5.32,0.7-7.438,1.987c-42.655,25.954-85.259,51.993-127.787,78.155c-6.889,4.238-12.794,9.938-21.331,11.359
		c-14.187,2.365-27.891-4.037-33.645-16.527c-0.787-1.709-1.128-3.768-1.14-5.666c-0.088-15.99-0.05-31.984-0.05-47.977
		C314.981,447.748,314.981,446.121,314.981,443.951z M344.178,402.637c5.048,0.297,9.98,0.836,14.916,0.84
		c68.44,0.057,136.883,0.02,205.325,0.047c25.831,0.012,47.146-11.191,66.528-26.928c5.491-4.459,5.53-6.051,0.138-10.543
		c-19.167-15.963-40.204-27.705-66.145-27.657c-28.962,0.055-57.925,0.014-86.889,0.014c-40.145,0-80.288-0.027-120.431,0.041
		c-4.437,0.008-8.871,0.563-13.442,0.874C344.178,360.649,344.178,381.255,344.178,402.637z M443.278,429.05
		c-0.047-0.303-0.094-0.605-0.14-0.909c-32.922,0-65.843,0-98.923,0c0,19.972,0,40.201,0,61.342
		C377.62,469.102,410.449,449.076,443.278,429.05z M344.258,252.049c0,21.728,0,41.97,0,61.833c32.736,0,65.195,0,97.653,0
		c0.1-0.352,0.196-0.703,0.295-1.055C409.814,292.728,377.421,272.628,344.258,252.049z M315.381,317.329
		c-11.213,0-22.019,0.224-32.805-0.108c-4.428-0.137-6.12,1.706-6.162,5.626c-0.026,2.464,0.179,4.989,0.754,7.373
		c0.227,0.943,1.729,2.239,2.665,2.251c11.771,0.153,23.545,0.101,35.548,0.101C315.381,327.361,315.381,322.75,315.381,317.329z
		 M314.98,410.684c-11.233,0-21.851,0.199-32.451-0.096c-4.448-0.123-6.043,1.594-5.82,5.73c0.088,1.654-0.018,3.32,0.088,4.975
		c0.173,2.742,1.432,4.133,4.452,3.98c4.137-0.205,8.292-0.049,12.438-0.049c7.064,0.002,14.129,0,21.294,0
		C314.98,420.076,314.98,415.676,314.98,410.684z"/>
	<path d="M246.803,307.968c0,11.539,0,22.467,0,33.996c-6.778,0-13.381-0.013-19.982,0.003c-8.659,0.021-17.32-0.01-25.979,0.117
		c-12.196,0.18-24.558,8.843-27.728,20.649c-4.417,16.455,1.4,30.121,18.174,37.063c3.798,1.571,8.271,1.995,12.451,2.067
		c14.148,0.244,28.304,0.094,42.854,0.094c0,10.883,0,21.598,0,32.996c-3.138,0-6.403,0-9.668,0c-11.993,0-23.99,0.197-35.979-0.057
		c-12.192-0.256-26.305,9.666-29.092,21.596c-0.404,1.727-0.813,3.506-0.816,5.262c-0.065,21.156,0.021,42.311-0.093,63.463
		c-0.084,15.508-7.438,24.277-22.898,27.121c-10.386,1.91-19.888-0.395-27.875-7.547c-4.827-4.322-7.164-9.795-7.162-16.385
		c0.03-101.107,0.008-202.214,0.004-303.323c-0.001-2.831,0.056-5.662,0.104-8.492c0.276-15.974,8.92-25.643,24.908-27.394
		c9.489-1.04,18.227,1.182,25.525,7.659c5.142,4.562,7.495,10.273,7.454,17.258c-0.134,22.65-0.058,45.303,0.013,67.955
		c0.028,9.25,9.055,20.545,19.355,23.785c3.983,1.255,8.297,1.951,12.476,2.021C217.32,308.116,231.798,307.968,246.803,307.968z"/>
	<path fill="#FFFFFF" d="M570.989,371.044c-0.01,0-0.019,0-0.027,0c0,2.983-0.139,5.976,0.031,8.949
		c0.27,4.726,3.539,7.897,7.911,7.932c4.362,0.033,7.813-3.131,7.974-7.844c0.208-6.126,0.22-12.272-0.014-18.396
		c-0.176-4.623-3.805-7.813-8.12-7.696c-4.132,0.111-7.404,3.191-7.713,7.609C570.813,364.733,570.989,367.894,570.989,371.044z"/>
	<path d="M570.989,371.044c0-3.15-0.176-6.312,0.042-9.446c0.309-4.418,3.581-7.498,7.713-7.609c4.315-0.117,7.944,3.073,8.12,7.696
		c0.232,6.124,0.222,12.271,0.014,18.396c-0.16,4.713-3.611,7.877-7.974,7.844c-4.373-0.033-7.643-3.206-7.911-7.932
		c-0.17-2.975-0.031-5.966-0.031-8.949C570.972,371.044,570.979,371.044,570.989,371.044z"/>
</g>
</svg>
