<?xml version="1.0" encoding="utf-8"?>
<!-- Generator: Adobe Illustrator 16.0.3, SVG Export Plug-In . SVG Version: 6.00 Build 0)  -->
<!DOCTYPE svg PUBLIC "-//W3C//DTD SVG 1.1//EN" "http://www.w3.org/Graphics/SVG/1.1/DTD/svg11.dtd">
<svg version="1.1" id="Layer_1" xmlns="http://www.w3.org/2000/svg" xmlns:xlink="http://www.w3.org/1999/xlink" x="0px" y="0px"
	 width="664px" height="659px" viewBox="83.5 38.5 664 659" enable-background="new 83.5 38.5 664 659" xml:space="preserve">
<g>
	<path d="M186.059,230.873c0.004-7.892-0.436-14.258,0.124-20.535c0.633-7.041-2.26-11.704-8.034-15.048
		c55.807-82.004,169.843-143.351,296.903-118.954c131.553,25.26,229.722,135.832,240.787,268.916
		c11.989,144.183-77.183,268.718-203.158,310.48c-127.992,42.43-260.995-6.811-333.512-107.091
		c8.499-4.242,6.717-12.189,6.752-19.56c0.024-5.605,0.01-11.217,0.013-18.235c1.521,2.32,2.303,3.489,3.062,4.673
		c44.471,68.908,106.596,111.953,187.8,125.02c133.797,21.534,262.13-59.89,301.499-190.089
		c40.389-133.561-25.807-276.034-153.814-331.067c-121.528-52.248-263.949-7.082-334.992,106.232
		C188.635,226.975,187.735,228.305,186.059,230.873z"/>
	<path d="M314.948,443.906c-10.934-0.005-21.088,0.038-31.242-0.025c-14.187-0.093-24.664-11.069-24.728-25.821
		c-0.069-14.99,10.484-26.098,24.895-26.157c9.828-0.041,19.656-0.026,29.481-0.05c0.313-0.003,0.625-0.147,1.276-0.314
		c0.006-13.296,0.012-26.676,0.018-40.625c-10.502-0.004-20.938,0.062-31.379-0.03c-12.885-0.114-22.917-9.853-24.162-23.292
		c-1.269-13.698,7.333-26.428,19.822-28.268c6.04-0.891,12.296-0.348,18.455-0.398c5.646-0.043,11.289-0.005,17.627-0.002
		c0.001-2.024,0.002-3.785,0.003-5.543c0.006-14.493,0.013-28.983,0.019-43.479c0.007-16.29,9.755-26.68,26.162-27.876
		c7.896-0.577,15.216,1.306,21.89,5.497c44.968,28.232,89.903,56.52,134.911,84.683c1.82,1.139,4.295,1.713,6.471,1.727
		c21.489,0.135,42.981,0.333,64.468,0.014c11.916-0.178,23.089,2.36,33.932,6.92c15.882,6.678,31.085,14.579,43.854,26.355
		c17.862,16.468,17.941,33.089-0.584,48.741c-19.377,16.372-41.728,27.218-66.858,31.736c-3.882,0.696-7.972,0.308-11.965,0.312
		c-20.324,0.013-40.646-0.079-60.971,0.072c-2.5,0.019-5.32,0.698-7.438,1.983c-42.666,25.936-85.282,51.954-127.821,78.097
		c-6.891,4.235-12.799,9.933-21.336,11.352c-14.188,2.357-27.89-4.051-33.638-16.543c-0.787-1.709-1.126-3.768-1.139-5.667
		c-0.081-15.988-0.036-31.981-0.028-47.977C314.946,447.703,314.947,446.076,314.948,443.906z M344.162,402.605
		c5.049,0.298,9.979,0.839,14.916,0.846c68.442,0.089,136.883,0.082,205.325,0.141c25.831,0.022,47.151-11.17,66.541-26.9
		c5.492-4.457,5.533-6.049,0.143-10.544c-19.161-15.971-40.192-27.722-66.136-27.686c-28.961,0.043-57.924-0.011-86.889-0.023
		c-40.145-0.018-80.288-0.063-120.43-0.012c-4.438,0.006-8.872,0.558-13.443,0.868C344.182,360.618,344.173,381.224,344.162,402.605
		z M443.252,429.062c-0.047-0.302-0.094-0.604-0.14-0.909c-32.922-0.015-65.843-0.029-98.923-0.044
		c-0.009,19.974-0.018,40.201-0.027,61.345C377.575,469.085,410.413,449.074,443.252,429.062z M344.31,252.018
		c-0.01,21.729-0.019,41.97-0.027,61.833c32.736,0.014,65.195,0.029,97.654,0.043c0.099-0.352,0.194-0.703,0.296-1.054
		C409.849,292.726,377.463,272.612,344.31,252.018z M315.404,317.284c-11.213-0.005-22.021,0.214-32.805-0.123
		c-4.43-0.139-6.121,1.703-6.165,5.623c-0.027,2.464,0.177,4.989,0.751,7.373c0.226,0.944,1.728,2.24,2.664,2.252
		c11.771,0.159,23.545,0.113,35.547,0.118C315.399,327.316,315.401,322.706,315.404,317.284z M314.962,410.639
		c-11.231-0.005-21.851,0.19-32.451-0.109c-4.446-0.124-6.044,1.59-5.821,5.729c0.087,1.651-0.021,3.317,0.086,4.973
		c0.172,2.743,1.43,4.134,4.45,3.983c4.137-0.204,8.292-0.046,12.438-0.045c7.065,0.004,14.129,0.007,21.294,0.01
		C314.958,420.032,314.96,415.631,314.962,410.639z"/>
	<path d="M246.83,307.894c-0.005,11.539-0.01,22.467-0.015,33.996c-6.779-0.003-13.381-0.019-19.983-0.006
		c-8.657,0.018-17.318-0.018-25.979,0.106c-12.196,0.174-24.563,8.831-27.738,20.636c-4.425,16.452,1.387,30.121,18.159,37.07
		c3.797,1.573,8.27,2,12.448,2.074c14.148,0.249,28.305,0.104,42.854,0.111c-0.005,10.883-0.01,21.599-0.015,32.996
		c-3.138-0.001-6.403-0.003-9.668-0.005c-11.993-0.005-23.991,0.188-35.979-0.074c-12.19-0.261-26.309,9.655-29.101,21.585
		c-0.406,1.726-0.814,3.506-0.817,5.262c-0.075,21.155,0.002,42.31-0.123,63.464c-0.091,15.507-7.448,24.272-22.909,27.11
		c-10.387,1.904-19.888-0.404-27.872-7.561c-4.825-4.324-7.16-9.798-7.155-16.387c0.075-101.108,0.098-202.215,0.139-303.323
		c0-2.831,0.058-5.662,0.108-8.492c0.283-15.973,8.933-25.639,24.919-27.383c9.49-1.036,18.228,1.19,25.522,7.67
		c5.14,4.564,7.491,10.276,7.447,17.261c-0.144,22.65-0.08,45.303-0.018,67.957c0.024,9.25,9.045,20.549,19.345,23.792
		c3.98,1.259,8.295,1.955,12.474,2.027C217.347,308.028,231.825,307.887,246.83,307.894z"/>
	<path fill="#FFFFFF" d="M570.988,371.113c-0.01,0-0.019,0.001-0.027,0.001c-0.002,2.983-0.141,5.976,0.028,8.949
		c0.267,4.726,3.534,7.896,7.907,7.935c4.361,0.035,7.814-3.128,7.977-7.841c0.211-6.125,0.225-12.272-0.005-18.396
		c-0.175-4.623-3.802-7.814-8.117-7.699c-4.132,0.108-7.406,3.188-7.716,7.605C570.814,364.802,570.989,367.963,570.988,371.113z"/>
	<path d="M570.988,371.113c0.001-3.15-0.174-6.312,0.047-9.445c0.31-4.418,3.584-7.497,7.716-7.605
		c4.315-0.114,7.942,3.076,8.117,7.699c0.229,6.123,0.216,12.271,0.005,18.396c-0.162,4.713-3.615,7.876-7.977,7.841
		c-4.373-0.035-7.642-3.209-7.907-7.935c-0.169-2.977-0.03-5.966-0.028-8.949C570.971,371.113,570.979,371.113,570.988,371.113z"/>
</g>
</svg>
