<?xml version="1.0" encoding="utf-8"?>
<!-- Generator: Adobe Illustrator 16.0.3, SVG Export Plug-In . SVG Version: 6.00 Build 0)  -->
<!DOCTYPE svg PUBLIC "-//W3C//DTD SVG 1.1//EN" "http://www.w3.org/Graphics/SVG/1.1/DTD/svg11.dtd">
<svg version="1.1" id="Layer_1" xmlns="http://www.w3.org/2000/svg" xmlns:xlink="http://www.w3.org/1999/xlink" x="0px" y="0px"
	 width="800px" height="800px" viewBox="0 0 800 800" enable-background="new 0 0 800 800" xml:space="preserve">
<g>
	<path d="M256.865,484.939c-10.578,0-20.544,0.021-30.51-0.008c-14.929-0.043-25.514-10.896-25.476-26.081
		c0.039-15.15,10.651-25.879,25.652-25.901c9.949-0.02,19.899-0.004,30.087-0.004c0-13.742,0-27.004,0-40.995
		c-2.737,0-5.495,0-8.253,0c-7.497,0-14.993,0.033-22.489-0.008c-14.497-0.078-25.026-11.074-24.997-26.058
		c0.029-14.961,10.594-25.877,25.132-25.921c10.117-0.031,20.235-0.006,30.854-0.006c0-2.078,0-3.694,0-5.312
		c0-14.493,0-28.985,0-43.479c0-16.443,9.507-26.775,25.919-28.1c8.067-0.651,15.503,1.321,22.345,5.617
		c44.967,28.233,89.925,56.481,134.946,84.626c1.688,1.057,3.996,1.566,6.02,1.577c21.322,0.111,42.651,0.342,63.968-0.035
		c12.437-0.22,24.104,2.364,35.388,7.187c15.521,6.635,30.437,14.388,42.979,25.909c18.098,16.625,18.178,33.298-0.596,49.082
		c-19.277,16.209-41.471,27.007-66.415,31.547c-3.881,0.706-7.97,0.349-11.962,0.354c-20.324,0.027-40.648-0.063-60.971,0.106
		c-2.655,0.021-5.648,0.751-7.898,2.119c-42.66,25.945-85.271,51.975-127.78,78.168c-6.894,4.247-12.831,9.892-21.37,11.265
		c-14.177,2.281-27.789-4.241-33.488-16.827c-0.774-1.709-1.029-3.781-1.037-5.688C256.834,520.598,256.865,503.123,256.865,484.939
		z M403.674,444.501c34.461,0,68.922,0.068,103.383-0.022c25.619-0.065,46.76-11.391,65.959-27.069
		c5.271-4.306,5.31-5.843,0.127-10.198c-19.105-16.063-40.151-27.81-66.072-27.813c-29.629-0.003-59.26-0.001-88.889-0.001
		c-38.812,0-77.624-0.015-116.435,0.023c-3.825,0.003-7.649,0.442-11.475,0.462c-3.368,0.019-4.527,1.354-4.486,4.825
		c0.179,14.989,0.076,29.982,0.076,44.974c0,14.791,0,14.813,14.871,14.817C335.047,444.51,369.36,444.501,403.674,444.501z
		 M286.093,530.488c33.573-20.49,66.355-40.499,99.14-60.508c-0.11-0.347-0.224-0.69-0.333-1.036c-32.858,0-65.718,0-98.807,0
		C286.093,489.02,286.093,509.269,286.093,530.488z M383.747,354.94c0.126-0.368,0.252-0.735,0.378-1.103
		c-32.463-20.141-64.927-40.281-97.845-60.704c0,21.586,0,41.917,0,61.807C319.047,354.94,351.396,354.94,383.747,354.94z
		 M257.293,358.316c-10.374,0-20.188,0-30,0c-8.295,0-10.339,2.455-8.974,10.676c0.529,3.191,1.818,4.886,5.563,4.695
		c6.649-0.339,13.326-0.095,19.991-0.095c4.428,0,8.856,0,13.42,0C257.293,368.229,257.293,363.618,257.293,358.316z
		 M256.978,451.671c-10.862,0-21.271-0.005-31.68,0.002c-6.32,0.005-6.64,0.331-6.697,6.736c-0.009,0.995,0.014,1.99,0.014,2.983
		c0,3.423,1.356,5.017,5.122,4.896c7.954-0.253,15.922-0.076,23.885-0.076c3.072,0,6.145,0,9.356,0
		C256.978,461.11,256.978,456.826,256.978,451.671z"/>
	<path fill="#FFFFFF" d="M403.674,444.501c-34.313,0-68.627,0.009-102.94-0.004c-14.871-0.006-14.871-0.026-14.871-14.817
		c0-14.99,0.103-29.984-0.076-44.974c-0.041-3.472,1.118-4.807,4.486-4.825c3.825-0.021,7.649-0.459,11.475-0.462
		c38.811-0.038,77.623-0.023,116.435-0.023c29.63,0,59.26-0.002,88.889,0.001c25.921,0.003,46.967,11.75,66.073,27.813
		c5.182,4.354,5.146,5.894-0.128,10.198c-19.199,15.68-40.34,27.003-65.959,27.069C472.596,444.569,438.135,444.501,403.674,444.501
		z M528.83,411.965c0-2.652,0-5.305,0-7.957c0-0.332,0.012-0.665-0.012-0.994c-0.357-4.71-3.528-7.957-7.85-8.037
		c-4.327-0.081-7.881,3.103-8.051,7.764c-0.227,6.125-0.227,12.27-0.014,18.396c0.162,4.682,3.67,7.838,8.037,7.779
		c4.349-0.059,7.586-3.258,7.846-8C528.952,417.94,528.82,414.949,528.83,411.965z"/>
	<path fill="#FFFFFF" d="M286.093,530.488c0-21.222,0-41.471,0-61.544c33.089,0,65.946,0,98.807,0
		c0.109,0.346,0.223,0.689,0.333,1.036C352.448,489.989,319.666,509.998,286.093,530.488z"/>
	<path fill="#FFFFFF" d="M383.747,354.94c-32.351,0-64.7,0-97.467,0c0-19.89,0-40.221,0-61.807
		c32.918,20.423,65.382,40.563,97.845,60.704C383.999,354.206,383.873,354.573,383.747,354.94z"/>
	<path fill="#FFFFFF" d="M257.293,358.316c0,5.302,0,9.914,0,15.276c-4.563,0-8.992,0-13.42,0c-6.665,0-13.342-0.245-19.991,0.095
		c-3.744,0.191-5.033-1.504-5.563-4.695c-1.365-8.221,0.679-10.675,8.974-10.676C237.105,358.315,246.919,358.316,257.293,358.316z"
		/>
	<path fill="#FFFFFF" d="M256.978,451.671c0,5.155,0,9.439,0,14.543c-3.212,0-6.284,0-9.356,0c-7.963,0-15.931-0.177-23.885,0.076
		c-3.766,0.119-5.122-1.475-5.122-4.896c0-0.993-0.022-1.988-0.014-2.983c0.058-6.405,0.377-6.731,6.697-6.736
		C235.706,451.666,246.115,451.671,256.978,451.671z"/>
	<path d="M528.824,411.965c-0.004,2.984,0.128,5.977-0.035,8.95c-0.26,4.742-3.497,7.941-7.846,8
		c-4.367,0.059-7.875-3.1-8.037-7.779c-0.213-6.125-0.213-12.271,0.014-18.396c0.17-4.661,3.724-7.844,8.051-7.764
		c4.319,0.081,7.49,3.326,7.85,8.038c0.021,0.329,0.012,0.662,0.012,0.993C528.83,406.66,528.83,409.313,528.824,411.965z"/>
</g>
</svg>
