<?xml version="1.0" encoding="utf-8"?>
<!-- Generator: Adobe Illustrator 16.0.3, SVG Export Plug-In . SVG Version: 6.00 Build 0)  -->
<!DOCTYPE svg PUBLIC "-//W3C//DTD SVG 1.1//EN" "http://www.w3.org/Graphics/SVG/1.1/DTD/svg11.dtd">
<svg version="1.1" id="Layer_1" xmlns="http://www.w3.org/2000/svg" xmlns:xlink="http://www.w3.org/1999/xlink" x="0px" y="0px"
	 width="800px" height="800px" viewBox="0 0 800 800" enable-background="new 0 0 800 800" xml:space="preserve">
<g>
	<path d="M465.951,545.942c0,10.577,0.021,20.544-0.006,30.51c-0.043,14.929-10.898,25.514-26.081,25.476
		c-15.152-0.039-25.879-10.649-25.903-25.65c-0.018-9.949-0.004-19.899-0.004-30.087c-13.742,0-27.004,0-40.995,0
		c0,2.735,0,5.493,0,8.253c0,7.497,0.033,14.992-0.008,22.487c-0.078,14.497-11.074,25.026-26.058,24.997
		c-14.963-0.027-25.879-10.594-25.923-25.132c-0.029-10.117-0.006-20.233-0.006-30.854c-2.078,0-3.692,0-5.312,0
		c-14.493,0-28.985,0-43.479,0c-16.443,0-26.775-9.508-28.1-25.919c-0.651-8.067,1.321-15.504,5.617-22.347
		c28.233-44.967,56.481-89.925,84.626-134.946c1.057-1.689,1.564-3.997,1.576-6.02c0.11-21.322,0.343-42.651-0.034-63.966
		c-0.222-12.436,2.362-24.104,7.187-35.387c6.635-15.522,14.388-30.437,25.909-42.979c16.625-18.097,33.298-18.176,49.08,0.595
		c16.209,19.278,27.007,41.471,31.547,66.416c0.706,3.881,0.349,7.97,0.354,11.962c0.025,20.324-0.065,40.648,0.104,60.97
		c0.022,2.656,0.751,5.649,2.119,7.899c25.947,42.66,51.975,85.27,78.168,127.78c4.247,6.896,9.892,12.831,11.265,21.37
		c2.281,14.177-4.24,27.789-16.826,33.488c-1.709,0.772-3.78,1.027-5.688,1.037C501.609,545.974,484.135,545.942,465.951,545.942z
		 M425.513,399.133c0-34.46,0.068-68.922-0.021-103.382c-0.067-25.619-11.393-46.758-27.071-65.959
		c-4.305-5.271-5.843-5.307-10.198-0.127c-16.063,19.108-27.81,40.154-27.813,66.075c-0.003,29.629-0.001,59.258-0.001,88.887
		c0,38.811-0.017,77.624,0.021,116.434c0.003,3.825,0.442,7.649,0.462,11.477c0.021,3.368,1.354,4.525,4.825,4.484
		c14.989-0.179,29.982-0.074,44.976-0.074c14.791,0,14.812,0,14.815-14.871C425.521,467.761,425.513,433.447,425.513,399.133z
		 M511.5,516.715c-20.49-33.573-40.499-66.354-60.508-99.138c-0.346,0.11-0.69,0.222-1.036,0.333c0,32.856,0,65.716,0,98.805
		C470.031,516.715,490.28,516.715,511.5,516.715z M335.952,419.061c-0.368-0.126-0.735-0.252-1.104-0.378
		c-20.141,32.465-40.281,64.929-60.704,97.847c21.586,0,41.917,0,61.807,0C335.952,483.761,335.952,451.411,335.952,419.061z
		 M339.328,545.515c0,10.374,0,20.188,0,30c0,8.295,2.455,10.339,10.676,8.976c3.191-0.529,4.886-1.818,4.695-5.563
		c-0.339-6.647-0.097-13.326-0.097-19.991c0-4.428,0-8.854,0-13.42C349.241,545.515,344.63,545.515,339.328,545.515z
		 M432.683,545.83c0,10.862-0.005,21.271,0.003,31.68c0.006,6.32,0.33,6.642,6.735,6.697c0.995,0.009,1.99-0.014,2.985-0.014
		c3.421,0,5.015-1.356,4.896-5.122c-0.253-7.954-0.076-15.922-0.076-23.886c0-3.071,0-6.146,0-9.355
		C442.122,545.83,437.838,545.83,432.683,545.83z"/>
	<path fill="#FFFFFF" d="M425.513,399.133c0,34.314,0.009,68.627-0.004,102.941c-0.006,14.871-0.024,14.871-14.815,14.871
		c-14.991,0-29.984-0.104-44.976,0.076c-3.472,0.041-4.807-1.118-4.825-4.486c-0.021-3.825-0.459-7.649-0.462-11.477
		c-0.038-38.811-0.021-77.623-0.021-116.434c0-29.629-0.002-59.258,0.001-88.887c0.003-25.921,11.75-46.967,27.813-66.075
		c4.355-5.18,5.896-5.144,10.198,0.127c15.68,19.202,27.003,40.34,27.071,65.959C425.581,330.211,425.513,364.673,425.513,399.133z
		 M392.977,273.978c-2.65,0-5.305-0.001-7.957,0c-0.332,0-0.663-0.013-0.992,0.012c-4.711,0.357-7.957,3.528-8.037,7.847
		c-0.081,4.328,3.103,7.881,7.764,8.052c6.125,0.226,12.271,0.227,18.396,0.014c4.68-0.163,7.838-3.67,7.777-8.037
		c-0.059-4.349-3.258-7.587-8-7.847C398.952,273.855,395.961,273.988,392.977,273.978z"/>
	<path fill="#FFFFFF" d="M511.5,516.715c-21.22,0-41.469,0-61.544,0c0-33.089,0-65.945,0-98.805c0.346-0.111,0.69-0.223,1.036-0.333
		C471.001,450.359,491.01,483.142,511.5,516.715z"/>
	<path fill="#FFFFFF" d="M335.952,419.061c0,32.353,0,64.7,0,97.469c-19.89,0-40.221,0-61.807,0
		c20.423-32.918,40.563-65.383,60.704-97.847C335.217,418.809,335.584,418.935,335.952,419.061z"/>
	<path fill="#FFFFFF" d="M339.328,545.515c5.302,0,9.914,0,15.274,0c0,4.563,0,8.992,0,13.42c0,6.665-0.243,13.344,0.097,19.991
		c0.189,3.744-1.504,5.033-4.695,5.563c-8.221,1.364-10.675-0.681-10.676-8.976C339.327,565.702,339.328,555.889,339.328,545.515z"
		/>
	<path fill="#FFFFFF" d="M432.683,545.83c5.155,0,9.439,0,14.543,0c0,3.212,0,6.284,0,9.354c0,7.965-0.177,15.933,0.076,23.887
		c0.119,3.766-1.475,5.122-4.896,5.122c-0.995,0-1.99,0.021-2.985,0.014c-6.405-0.058-6.729-0.377-6.735-6.697
		C432.678,567.102,432.683,556.692,432.683,545.83z"/>
	<path d="M392.977,273.983c2.984,0.005,5.977-0.127,8.95,0.035c4.742,0.26,7.941,3.498,8,7.847c0.061,4.367-3.1,7.874-7.777,8.037
		c-6.125,0.213-12.271,0.212-18.396-0.014c-4.661-0.171-7.844-3.724-7.764-8.052c0.081-4.319,3.326-7.489,8.037-7.847
		c0.329-0.024,0.661-0.012,0.992-0.012C387.672,273.977,390.324,273.978,392.977,273.983z"/>
</g>
</svg>
